G04 #@! TF.GenerationSoftware,KiCad,Pcbnew,5.1.5-52549c5~84~ubuntu16.04.1*
G04 #@! TF.CreationDate,2020-02-22T18:21:11+01:00*
G04 #@! TF.ProjectId,ESP-12F Board,4553502d-3132-4462-9042-6f6172642e6b,rev?*
G04 #@! TF.SameCoordinates,Original*
G04 #@! TF.FileFunction,Profile,NP*
%FSLAX46Y46*%
G04 Gerber Fmt 4.6, Leading zero omitted, Abs format (unit mm)*
G04 Created by KiCad (PCBNEW 5.1.5-52549c5~84~ubuntu16.04.1) date 2020-02-22 18:21:11*
%MOMM*%
%LPD*%
G04 APERTURE LIST*
%ADD10C,0.050000*%
G04 APERTURE END LIST*
D10*
X146050000Y-63500000D02*
X134620000Y-63500000D01*
X146050000Y-71120000D02*
X146050000Y-63500000D01*
X163830000Y-71120000D02*
X146050000Y-71120000D01*
X163830000Y-63500000D02*
X163830000Y-71120000D01*
X175260000Y-63500000D02*
X163830000Y-63500000D01*
X140096666Y-110490000D02*
G75*
G03X140096666Y-110490000I-1666666J0D01*
G01*
X135930000Y-110490000D02*
X140930000Y-110490000D01*
X138430000Y-107990000D02*
X138430000Y-112990000D01*
X173116666Y-110490000D02*
G75*
G03X173116666Y-110490000I-1666666J0D01*
G01*
X168950000Y-110490000D02*
X173950000Y-110490000D01*
X171450000Y-107990000D02*
X171450000Y-112990000D01*
X140096666Y-67310000D02*
G75*
G03X140096666Y-67310000I-1666666J0D01*
G01*
X135930000Y-67310000D02*
X140930000Y-67310000D01*
X138430000Y-64810000D02*
X138430000Y-69810000D01*
X173116666Y-67310000D02*
G75*
G03X173116666Y-67310000I-1666666J0D01*
G01*
X168950000Y-67310000D02*
X173950000Y-67310000D01*
X171450000Y-64810000D02*
X171450000Y-69810000D01*
X134620000Y-114300000D02*
X134620000Y-63500000D01*
X175260000Y-114300000D02*
X134620000Y-114300000D01*
X175260000Y-63500000D02*
X175260000Y-114300000D01*
M02*
