M48
; DRILL file {KiCad 5.1.5-52549c5~84~ubuntu16.04.1} date Sa 22 Feb 2020 18:21:24 CET
; FORMAT={-:-/ absolute / inch / decimal}
; #@! TF.CreationDate,2020-02-22T18:21:24+01:00
; #@! TF.GenerationSoftware,Kicad,Pcbnew,5.1.5-52549c5~84~ubuntu16.04.1
; #@! TF.FileFunction,Plated,1,2,PTH
FMAT,2
INCH
T1C0.0157
T2C0.0394
T3C0.0433
%
G90
G05
T1
X5.5329Y-2.85
X5.5329Y-3.8171
X5.65Y-3.0
X5.65Y-3.5
X5.9Y-3.75
X5.95Y-4.2
X6.05Y-4.2
X6.5Y-3.35
X6.5878Y-2.8622
X6.65Y-2.95
X6.7Y-3.25
X6.7Y-3.85
T2
X5.4Y-2.95
X5.4Y-3.05
X5.4Y-3.15
X5.4Y-3.25
X5.4Y-3.35
X5.4Y-3.45
X5.4Y-3.55
X5.4Y-3.65
X6.8Y-2.85
X6.8Y-2.95
X6.8Y-3.05
X6.8Y-3.15
X6.8Y-3.25
X6.8Y-3.35
X6.8Y-3.45
X6.8Y-3.55
X6.8Y-3.65
X6.8Y-3.75
X5.95Y-4.35
X6.05Y-4.35
X6.15Y-4.35
X6.25Y-4.35
T3
X5.4228Y-3.95
X5.4228Y-4.2059
X5.6Y-3.95
X5.6Y-4.2059
X6.6Y-3.9441
X6.6Y-4.2
X6.7772Y-3.9441
X6.7772Y-4.2
T0
M30
