G04 #@! TF.GenerationSoftware,KiCad,Pcbnew,5.1.5-52549c5~84~ubuntu16.04.1*
G04 #@! TF.CreationDate,2020-02-22T18:21:11+01:00*
G04 #@! TF.ProjectId,ESP-12F Board,4553502d-3132-4462-9042-6f6172642e6b,rev?*
G04 #@! TF.SameCoordinates,Original*
G04 #@! TF.FileFunction,Legend,Top*
G04 #@! TF.FilePolarity,Positive*
%FSLAX46Y46*%
G04 Gerber Fmt 4.6, Leading zero omitted, Abs format (unit mm)*
G04 Created by KiCad (PCBNEW 5.1.5-52549c5~84~ubuntu16.04.1) date 2020-02-22 18:21:11*
%MOMM*%
%LPD*%
G04 APERTURE LIST*
%ADD10C,0.150000*%
%ADD11C,0.120000*%
%ADD12C,0.130000*%
G04 APERTURE END LIST*
D10*
X162752738Y-109117380D02*
X163086071Y-110117380D01*
X163419404Y-109117380D01*
X164276547Y-110117380D02*
X163705119Y-110117380D01*
X163990833Y-110117380D02*
X163990833Y-109117380D01*
X163895595Y-109260238D01*
X163800357Y-109355476D01*
X163705119Y-109403095D01*
X164705119Y-110022142D02*
X164752738Y-110069761D01*
X164705119Y-110117380D01*
X164657500Y-110069761D01*
X164705119Y-110022142D01*
X164705119Y-110117380D01*
X165371785Y-109117380D02*
X165467023Y-109117380D01*
X165562261Y-109165000D01*
X165609880Y-109212619D01*
X165657500Y-109307857D01*
X165705119Y-109498333D01*
X165705119Y-109736428D01*
X165657500Y-109926904D01*
X165609880Y-110022142D01*
X165562261Y-110069761D01*
X165467023Y-110117380D01*
X165371785Y-110117380D01*
X165276547Y-110069761D01*
X165228928Y-110022142D01*
X165181309Y-109926904D01*
X165133690Y-109736428D01*
X165133690Y-109498333D01*
X165181309Y-109307857D01*
X165228928Y-109212619D01*
X165276547Y-109165000D01*
X165371785Y-109117380D01*
X167467023Y-110022142D02*
X167419404Y-110069761D01*
X167276547Y-110117380D01*
X167181309Y-110117380D01*
X167038452Y-110069761D01*
X166943214Y-109974523D01*
X166895595Y-109879285D01*
X166847976Y-109688809D01*
X166847976Y-109545952D01*
X166895595Y-109355476D01*
X166943214Y-109260238D01*
X167038452Y-109165000D01*
X167181309Y-109117380D01*
X167276547Y-109117380D01*
X167419404Y-109165000D01*
X167467023Y-109212619D01*
X168228928Y-109593571D02*
X168371785Y-109641190D01*
X168419404Y-109688809D01*
X168467023Y-109784047D01*
X168467023Y-109926904D01*
X168419404Y-110022142D01*
X168371785Y-110069761D01*
X168276547Y-110117380D01*
X167895595Y-110117380D01*
X167895595Y-109117380D01*
X168228928Y-109117380D01*
X168324166Y-109165000D01*
X168371785Y-109212619D01*
X168419404Y-109307857D01*
X168419404Y-109403095D01*
X168371785Y-109498333D01*
X168324166Y-109545952D01*
X168228928Y-109593571D01*
X167895595Y-109593571D01*
X169086071Y-109117380D02*
X169276547Y-109117380D01*
X169371785Y-109165000D01*
X169467023Y-109260238D01*
X169514642Y-109450714D01*
X169514642Y-109784047D01*
X169467023Y-109974523D01*
X169371785Y-110069761D01*
X169276547Y-110117380D01*
X169086071Y-110117380D01*
X168990833Y-110069761D01*
X168895595Y-109974523D01*
X168847976Y-109784047D01*
X168847976Y-109450714D01*
X168895595Y-109260238D01*
X168990833Y-109165000D01*
X169086071Y-109117380D01*
X163086071Y-110767380D02*
X163181309Y-110767380D01*
X163276547Y-110815000D01*
X163324166Y-110862619D01*
X163371785Y-110957857D01*
X163419404Y-111148333D01*
X163419404Y-111386428D01*
X163371785Y-111576904D01*
X163324166Y-111672142D01*
X163276547Y-111719761D01*
X163181309Y-111767380D01*
X163086071Y-111767380D01*
X162990833Y-111719761D01*
X162943214Y-111672142D01*
X162895595Y-111576904D01*
X162847976Y-111386428D01*
X162847976Y-111148333D01*
X162895595Y-110957857D01*
X162943214Y-110862619D01*
X162990833Y-110815000D01*
X163086071Y-110767380D01*
X164371785Y-111767380D02*
X163800357Y-111767380D01*
X164086071Y-111767380D02*
X164086071Y-110767380D01*
X163990833Y-110910238D01*
X163895595Y-111005476D01*
X163800357Y-111053095D01*
X164800357Y-111672142D02*
X164847976Y-111719761D01*
X164800357Y-111767380D01*
X164752738Y-111719761D01*
X164800357Y-111672142D01*
X164800357Y-111767380D01*
X165228928Y-110862619D02*
X165276547Y-110815000D01*
X165371785Y-110767380D01*
X165609880Y-110767380D01*
X165705119Y-110815000D01*
X165752738Y-110862619D01*
X165800357Y-110957857D01*
X165800357Y-111053095D01*
X165752738Y-111195952D01*
X165181309Y-111767380D01*
X165800357Y-111767380D01*
X166419404Y-110767380D02*
X166514642Y-110767380D01*
X166609880Y-110815000D01*
X166657500Y-110862619D01*
X166705119Y-110957857D01*
X166752738Y-111148333D01*
X166752738Y-111386428D01*
X166705119Y-111576904D01*
X166657500Y-111672142D01*
X166609880Y-111719761D01*
X166514642Y-111767380D01*
X166419404Y-111767380D01*
X166324166Y-111719761D01*
X166276547Y-111672142D01*
X166228928Y-111576904D01*
X166181309Y-111386428D01*
X166181309Y-111148333D01*
X166228928Y-110957857D01*
X166276547Y-110862619D01*
X166324166Y-110815000D01*
X166419404Y-110767380D01*
X167133690Y-110862619D02*
X167181309Y-110815000D01*
X167276547Y-110767380D01*
X167514642Y-110767380D01*
X167609880Y-110815000D01*
X167657500Y-110862619D01*
X167705119Y-110957857D01*
X167705119Y-111053095D01*
X167657500Y-111195952D01*
X167086071Y-111767380D01*
X167705119Y-111767380D01*
X168324166Y-110767380D02*
X168419404Y-110767380D01*
X168514642Y-110815000D01*
X168562261Y-110862619D01*
X168609880Y-110957857D01*
X168657500Y-111148333D01*
X168657500Y-111386428D01*
X168609880Y-111576904D01*
X168562261Y-111672142D01*
X168514642Y-111719761D01*
X168419404Y-111767380D01*
X168324166Y-111767380D01*
X168228928Y-111719761D01*
X168181309Y-111672142D01*
X168133690Y-111576904D01*
X168086071Y-111386428D01*
X168086071Y-111148333D01*
X168133690Y-110957857D01*
X168181309Y-110862619D01*
X168228928Y-110815000D01*
X168324166Y-110767380D01*
X155710000Y-107441904D02*
X155662380Y-107537142D01*
X155662380Y-107680000D01*
X155710000Y-107822857D01*
X155805238Y-107918095D01*
X155900476Y-107965714D01*
X156090952Y-108013333D01*
X156233809Y-108013333D01*
X156424285Y-107965714D01*
X156519523Y-107918095D01*
X156614761Y-107822857D01*
X156662380Y-107680000D01*
X156662380Y-107584761D01*
X156614761Y-107441904D01*
X156567142Y-107394285D01*
X156233809Y-107394285D01*
X156233809Y-107584761D01*
X156662380Y-106965714D02*
X155662380Y-106965714D01*
X156662380Y-106394285D01*
X155662380Y-106394285D01*
X156662380Y-105918095D02*
X155662380Y-105918095D01*
X155662380Y-105680000D01*
X155710000Y-105537142D01*
X155805238Y-105441904D01*
X155900476Y-105394285D01*
X156090952Y-105346666D01*
X156233809Y-105346666D01*
X156424285Y-105394285D01*
X156519523Y-105441904D01*
X156614761Y-105537142D01*
X156662380Y-105680000D01*
X156662380Y-105918095D01*
X151273333Y-120435714D02*
X151273333Y-121102380D01*
X151035238Y-120054761D02*
X150797142Y-120769047D01*
X151416190Y-120769047D01*
X151987619Y-120102380D02*
X152082857Y-120102380D01*
X152178095Y-120150000D01*
X152225714Y-120197619D01*
X152273333Y-120292857D01*
X152320952Y-120483333D01*
X152320952Y-120721428D01*
X152273333Y-120911904D01*
X152225714Y-121007142D01*
X152178095Y-121054761D01*
X152082857Y-121102380D01*
X151987619Y-121102380D01*
X151892380Y-121054761D01*
X151844761Y-121007142D01*
X151797142Y-120911904D01*
X151749523Y-120721428D01*
X151749523Y-120483333D01*
X151797142Y-120292857D01*
X151844761Y-120197619D01*
X151892380Y-120150000D01*
X151987619Y-120102380D01*
X152797142Y-121054761D02*
X152797142Y-121102380D01*
X152749523Y-121197619D01*
X152701904Y-121245238D01*
X153654285Y-120102380D02*
X153463809Y-120102380D01*
X153368571Y-120150000D01*
X153320952Y-120197619D01*
X153225714Y-120340476D01*
X153178095Y-120530952D01*
X153178095Y-120911904D01*
X153225714Y-121007142D01*
X153273333Y-121054761D01*
X153368571Y-121102380D01*
X153559047Y-121102380D01*
X153654285Y-121054761D01*
X153701904Y-121007142D01*
X153749523Y-120911904D01*
X153749523Y-120673809D01*
X153701904Y-120578571D01*
X153654285Y-120530952D01*
X153559047Y-120483333D01*
X153368571Y-120483333D01*
X153273333Y-120530952D01*
X153225714Y-120578571D01*
X153178095Y-120673809D01*
X154606666Y-120435714D02*
X154606666Y-121102380D01*
X154368571Y-120054761D02*
X154130476Y-120769047D01*
X154749523Y-120769047D01*
X155320952Y-120102380D02*
X155416190Y-120102380D01*
X155511428Y-120150000D01*
X155559047Y-120197619D01*
X155606666Y-120292857D01*
X155654285Y-120483333D01*
X155654285Y-120721428D01*
X155606666Y-120911904D01*
X155559047Y-121007142D01*
X155511428Y-121054761D01*
X155416190Y-121102380D01*
X155320952Y-121102380D01*
X155225714Y-121054761D01*
X155178095Y-121007142D01*
X155130476Y-120911904D01*
X155082857Y-120721428D01*
X155082857Y-120483333D01*
X155130476Y-120292857D01*
X155178095Y-120197619D01*
X155225714Y-120150000D01*
X155320952Y-120102380D01*
X156844761Y-121102380D02*
X156844761Y-120435714D01*
X156844761Y-120530952D02*
X156892380Y-120483333D01*
X156987619Y-120435714D01*
X157130476Y-120435714D01*
X157225714Y-120483333D01*
X157273333Y-120578571D01*
X157273333Y-121102380D01*
X157273333Y-120578571D02*
X157320952Y-120483333D01*
X157416190Y-120435714D01*
X157559047Y-120435714D01*
X157654285Y-120483333D01*
X157701904Y-120578571D01*
X157701904Y-121102380D01*
X158178095Y-121102380D02*
X158178095Y-120435714D01*
X158178095Y-120530952D02*
X158225714Y-120483333D01*
X158320952Y-120435714D01*
X158463809Y-120435714D01*
X158559047Y-120483333D01*
X158606666Y-120578571D01*
X158606666Y-121102380D01*
X158606666Y-120578571D02*
X158654285Y-120483333D01*
X158749523Y-120435714D01*
X158892380Y-120435714D01*
X158987619Y-120483333D01*
X159035238Y-120578571D01*
X159035238Y-121102380D01*
D11*
X134620000Y-119380000D02*
X175260000Y-119380000D01*
X134620000Y-115570000D02*
X134620000Y-119966421D01*
X175260000Y-115570000D02*
X175260000Y-119966421D01*
X175260000Y-119380000D02*
X174133496Y-119966421D01*
X175260000Y-119380000D02*
X174133496Y-118793579D01*
X134620000Y-119380000D02*
X135746504Y-119966421D01*
X134620000Y-119380000D02*
X135746504Y-118793579D01*
D10*
X182157619Y-85280952D02*
X182157619Y-84804761D01*
X181681428Y-84757142D01*
X181729047Y-84804761D01*
X181776666Y-84900000D01*
X181776666Y-85138095D01*
X181729047Y-85233333D01*
X181681428Y-85280952D01*
X181586190Y-85328571D01*
X181348095Y-85328571D01*
X181252857Y-85280952D01*
X181205238Y-85233333D01*
X181157619Y-85138095D01*
X181157619Y-84900000D01*
X181205238Y-84804761D01*
X181252857Y-84757142D01*
X182157619Y-85947619D02*
X182157619Y-86042857D01*
X182110000Y-86138095D01*
X182062380Y-86185714D01*
X181967142Y-86233333D01*
X181776666Y-86280952D01*
X181538571Y-86280952D01*
X181348095Y-86233333D01*
X181252857Y-86185714D01*
X181205238Y-86138095D01*
X181157619Y-86042857D01*
X181157619Y-85947619D01*
X181205238Y-85852380D01*
X181252857Y-85804761D01*
X181348095Y-85757142D01*
X181538571Y-85709523D01*
X181776666Y-85709523D01*
X181967142Y-85757142D01*
X182062380Y-85804761D01*
X182110000Y-85852380D01*
X182157619Y-85947619D01*
X181205238Y-86757142D02*
X181157619Y-86757142D01*
X181062380Y-86709523D01*
X181014761Y-86661904D01*
X181729047Y-87328571D02*
X181776666Y-87233333D01*
X181824285Y-87185714D01*
X181919523Y-87138095D01*
X181967142Y-87138095D01*
X182062380Y-87185714D01*
X182110000Y-87233333D01*
X182157619Y-87328571D01*
X182157619Y-87519047D01*
X182110000Y-87614285D01*
X182062380Y-87661904D01*
X181967142Y-87709523D01*
X181919523Y-87709523D01*
X181824285Y-87661904D01*
X181776666Y-87614285D01*
X181729047Y-87519047D01*
X181729047Y-87328571D01*
X181681428Y-87233333D01*
X181633809Y-87185714D01*
X181538571Y-87138095D01*
X181348095Y-87138095D01*
X181252857Y-87185714D01*
X181205238Y-87233333D01*
X181157619Y-87328571D01*
X181157619Y-87519047D01*
X181205238Y-87614285D01*
X181252857Y-87661904D01*
X181348095Y-87709523D01*
X181538571Y-87709523D01*
X181633809Y-87661904D01*
X181681428Y-87614285D01*
X181729047Y-87519047D01*
X182157619Y-88328571D02*
X182157619Y-88423809D01*
X182110000Y-88519047D01*
X182062380Y-88566666D01*
X181967142Y-88614285D01*
X181776666Y-88661904D01*
X181538571Y-88661904D01*
X181348095Y-88614285D01*
X181252857Y-88566666D01*
X181205238Y-88519047D01*
X181157619Y-88423809D01*
X181157619Y-88328571D01*
X181205238Y-88233333D01*
X181252857Y-88185714D01*
X181348095Y-88138095D01*
X181538571Y-88090476D01*
X181776666Y-88090476D01*
X181967142Y-88138095D01*
X182062380Y-88185714D01*
X182110000Y-88233333D01*
X182157619Y-88328571D01*
X182157619Y-89280952D02*
X182157619Y-89376190D01*
X182110000Y-89471428D01*
X182062380Y-89519047D01*
X181967142Y-89566666D01*
X181776666Y-89614285D01*
X181538571Y-89614285D01*
X181348095Y-89566666D01*
X181252857Y-89519047D01*
X181205238Y-89471428D01*
X181157619Y-89376190D01*
X181157619Y-89280952D01*
X181205238Y-89185714D01*
X181252857Y-89138095D01*
X181348095Y-89090476D01*
X181538571Y-89042857D01*
X181776666Y-89042857D01*
X181967142Y-89090476D01*
X182062380Y-89138095D01*
X182110000Y-89185714D01*
X182157619Y-89280952D01*
X181157619Y-90804761D02*
X181824285Y-90804761D01*
X181729047Y-90804761D02*
X181776666Y-90852380D01*
X181824285Y-90947619D01*
X181824285Y-91090476D01*
X181776666Y-91185714D01*
X181681428Y-91233333D01*
X181157619Y-91233333D01*
X181681428Y-91233333D02*
X181776666Y-91280952D01*
X181824285Y-91376190D01*
X181824285Y-91519047D01*
X181776666Y-91614285D01*
X181681428Y-91661904D01*
X181157619Y-91661904D01*
X181157619Y-92138095D02*
X181824285Y-92138095D01*
X181729047Y-92138095D02*
X181776666Y-92185714D01*
X181824285Y-92280952D01*
X181824285Y-92423809D01*
X181776666Y-92519047D01*
X181681428Y-92566666D01*
X181157619Y-92566666D01*
X181681428Y-92566666D02*
X181776666Y-92614285D01*
X181824285Y-92709523D01*
X181824285Y-92852380D01*
X181776666Y-92947619D01*
X181681428Y-92995238D01*
X181157619Y-92995238D01*
D11*
X180340000Y-63500000D02*
X180340000Y-114300000D01*
X176530000Y-63500000D02*
X180926421Y-63500000D01*
X176530000Y-114300000D02*
X180926421Y-114300000D01*
X180340000Y-114300000D02*
X179753579Y-113173496D01*
X180340000Y-114300000D02*
X180926421Y-113173496D01*
X180340000Y-63500000D02*
X179753579Y-64626504D01*
X180340000Y-63500000D02*
X180926421Y-64626504D01*
D10*
X168148095Y-94750000D02*
X168052857Y-94702380D01*
X167910000Y-94702380D01*
X167767142Y-94750000D01*
X167671904Y-94845238D01*
X167624285Y-94940476D01*
X167576666Y-95130952D01*
X167576666Y-95273809D01*
X167624285Y-95464285D01*
X167671904Y-95559523D01*
X167767142Y-95654761D01*
X167910000Y-95702380D01*
X168005238Y-95702380D01*
X168148095Y-95654761D01*
X168195714Y-95607142D01*
X168195714Y-95273809D01*
X168005238Y-95273809D01*
X168624285Y-95702380D02*
X168624285Y-94702380D01*
X169195714Y-95702380D01*
X169195714Y-94702380D01*
X169671904Y-95702380D02*
X169671904Y-94702380D01*
X169910000Y-94702380D01*
X170052857Y-94750000D01*
X170148095Y-94845238D01*
X170195714Y-94940476D01*
X170243333Y-95130952D01*
X170243333Y-95273809D01*
X170195714Y-95464285D01*
X170148095Y-95559523D01*
X170052857Y-95654761D01*
X169910000Y-95702380D01*
X169671904Y-95702380D01*
X168148095Y-92210000D02*
X168052857Y-92162380D01*
X167910000Y-92162380D01*
X167767142Y-92210000D01*
X167671904Y-92305238D01*
X167624285Y-92400476D01*
X167576666Y-92590952D01*
X167576666Y-92733809D01*
X167624285Y-92924285D01*
X167671904Y-93019523D01*
X167767142Y-93114761D01*
X167910000Y-93162380D01*
X168005238Y-93162380D01*
X168148095Y-93114761D01*
X168195714Y-93067142D01*
X168195714Y-92733809D01*
X168005238Y-92733809D01*
X168624285Y-93162380D02*
X168624285Y-92162380D01*
X169195714Y-93162380D01*
X169195714Y-92162380D01*
X169671904Y-93162380D02*
X169671904Y-92162380D01*
X169910000Y-92162380D01*
X170052857Y-92210000D01*
X170148095Y-92305238D01*
X170195714Y-92400476D01*
X170243333Y-92590952D01*
X170243333Y-92733809D01*
X170195714Y-92924285D01*
X170148095Y-93019523D01*
X170052857Y-93114761D01*
X169910000Y-93162380D01*
X169671904Y-93162380D01*
X168148095Y-89670000D02*
X168052857Y-89622380D01*
X167910000Y-89622380D01*
X167767142Y-89670000D01*
X167671904Y-89765238D01*
X167624285Y-89860476D01*
X167576666Y-90050952D01*
X167576666Y-90193809D01*
X167624285Y-90384285D01*
X167671904Y-90479523D01*
X167767142Y-90574761D01*
X167910000Y-90622380D01*
X168005238Y-90622380D01*
X168148095Y-90574761D01*
X168195714Y-90527142D01*
X168195714Y-90193809D01*
X168005238Y-90193809D01*
X168624285Y-90622380D02*
X168624285Y-89622380D01*
X169195714Y-90622380D01*
X169195714Y-89622380D01*
X169671904Y-90622380D02*
X169671904Y-89622380D01*
X169910000Y-89622380D01*
X170052857Y-89670000D01*
X170148095Y-89765238D01*
X170195714Y-89860476D01*
X170243333Y-90050952D01*
X170243333Y-90193809D01*
X170195714Y-90384285D01*
X170148095Y-90479523D01*
X170052857Y-90574761D01*
X169910000Y-90622380D01*
X169671904Y-90622380D01*
X168171904Y-88082380D02*
X168171904Y-87082380D01*
X168410000Y-87082380D01*
X168552857Y-87130000D01*
X168648095Y-87225238D01*
X168695714Y-87320476D01*
X168743333Y-87510952D01*
X168743333Y-87653809D01*
X168695714Y-87844285D01*
X168648095Y-87939523D01*
X168552857Y-88034761D01*
X168410000Y-88082380D01*
X168171904Y-88082380D01*
X169314761Y-87510952D02*
X169219523Y-87463333D01*
X169171904Y-87415714D01*
X169124285Y-87320476D01*
X169124285Y-87272857D01*
X169171904Y-87177619D01*
X169219523Y-87130000D01*
X169314761Y-87082380D01*
X169505238Y-87082380D01*
X169600476Y-87130000D01*
X169648095Y-87177619D01*
X169695714Y-87272857D01*
X169695714Y-87320476D01*
X169648095Y-87415714D01*
X169600476Y-87463333D01*
X169505238Y-87510952D01*
X169314761Y-87510952D01*
X169219523Y-87558571D01*
X169171904Y-87606190D01*
X169124285Y-87701428D01*
X169124285Y-87891904D01*
X169171904Y-87987142D01*
X169219523Y-88034761D01*
X169314761Y-88082380D01*
X169505238Y-88082380D01*
X169600476Y-88034761D01*
X169648095Y-87987142D01*
X169695714Y-87891904D01*
X169695714Y-87701428D01*
X169648095Y-87606190D01*
X169600476Y-87558571D01*
X169505238Y-87510952D01*
X168171904Y-85542380D02*
X168171904Y-84542380D01*
X168410000Y-84542380D01*
X168552857Y-84590000D01*
X168648095Y-84685238D01*
X168695714Y-84780476D01*
X168743333Y-84970952D01*
X168743333Y-85113809D01*
X168695714Y-85304285D01*
X168648095Y-85399523D01*
X168552857Y-85494761D01*
X168410000Y-85542380D01*
X168171904Y-85542380D01*
X169600476Y-84875714D02*
X169600476Y-85542380D01*
X169362380Y-84494761D02*
X169124285Y-85209047D01*
X169743333Y-85209047D01*
X168171904Y-83002380D02*
X168171904Y-82002380D01*
X168410000Y-82002380D01*
X168552857Y-82050000D01*
X168648095Y-82145238D01*
X168695714Y-82240476D01*
X168743333Y-82430952D01*
X168743333Y-82573809D01*
X168695714Y-82764285D01*
X168648095Y-82859523D01*
X168552857Y-82954761D01*
X168410000Y-83002380D01*
X168171904Y-83002380D01*
X169076666Y-82002380D02*
X169695714Y-82002380D01*
X169362380Y-82383333D01*
X169505238Y-82383333D01*
X169600476Y-82430952D01*
X169648095Y-82478571D01*
X169695714Y-82573809D01*
X169695714Y-82811904D01*
X169648095Y-82907142D01*
X169600476Y-82954761D01*
X169505238Y-83002380D01*
X169219523Y-83002380D01*
X169124285Y-82954761D01*
X169076666Y-82907142D01*
X168171904Y-80462380D02*
X168171904Y-79462380D01*
X168410000Y-79462380D01*
X168552857Y-79510000D01*
X168648095Y-79605238D01*
X168695714Y-79700476D01*
X168743333Y-79890952D01*
X168743333Y-80033809D01*
X168695714Y-80224285D01*
X168648095Y-80319523D01*
X168552857Y-80414761D01*
X168410000Y-80462380D01*
X168171904Y-80462380D01*
X169124285Y-79557619D02*
X169171904Y-79510000D01*
X169267142Y-79462380D01*
X169505238Y-79462380D01*
X169600476Y-79510000D01*
X169648095Y-79557619D01*
X169695714Y-79652857D01*
X169695714Y-79748095D01*
X169648095Y-79890952D01*
X169076666Y-80462380D01*
X169695714Y-80462380D01*
X168171904Y-77922380D02*
X168171904Y-76922380D01*
X168410000Y-76922380D01*
X168552857Y-76970000D01*
X168648095Y-77065238D01*
X168695714Y-77160476D01*
X168743333Y-77350952D01*
X168743333Y-77493809D01*
X168695714Y-77684285D01*
X168648095Y-77779523D01*
X168552857Y-77874761D01*
X168410000Y-77922380D01*
X168171904Y-77922380D01*
X169695714Y-77922380D02*
X169124285Y-77922380D01*
X169410000Y-77922380D02*
X169410000Y-76922380D01*
X169314761Y-77065238D01*
X169219523Y-77160476D01*
X169124285Y-77208095D01*
X167648095Y-74382380D02*
X168219523Y-74382380D01*
X167933809Y-75382380D02*
X167933809Y-74382380D01*
X168457619Y-74382380D02*
X169124285Y-75382380D01*
X169124285Y-74382380D02*
X168457619Y-75382380D01*
X169505238Y-75382380D02*
X169505238Y-74382380D01*
X169743333Y-74382380D01*
X169886190Y-74430000D01*
X169981428Y-74525238D01*
X170029047Y-74620476D01*
X170076666Y-74810952D01*
X170076666Y-74953809D01*
X170029047Y-75144285D01*
X169981428Y-75239523D01*
X169886190Y-75334761D01*
X169743333Y-75382380D01*
X169505238Y-75382380D01*
X168243333Y-72842380D02*
X167910000Y-72366190D01*
X167671904Y-72842380D02*
X167671904Y-71842380D01*
X168052857Y-71842380D01*
X168148095Y-71890000D01*
X168195714Y-71937619D01*
X168243333Y-72032857D01*
X168243333Y-72175714D01*
X168195714Y-72270952D01*
X168148095Y-72318571D01*
X168052857Y-72366190D01*
X167671904Y-72366190D01*
X168576666Y-71842380D02*
X169243333Y-72842380D01*
X169243333Y-71842380D02*
X168576666Y-72842380D01*
X169624285Y-72842380D02*
X169624285Y-71842380D01*
X169862380Y-71842380D01*
X170005238Y-71890000D01*
X170100476Y-71985238D01*
X170148095Y-72080476D01*
X170195714Y-72270952D01*
X170195714Y-72413809D01*
X170148095Y-72604285D01*
X170100476Y-72699523D01*
X170005238Y-72794761D01*
X169862380Y-72842380D01*
X169624285Y-72842380D01*
D12*
X139789047Y-92271904D02*
X140284285Y-92271904D01*
X140017619Y-92576666D01*
X140131904Y-92576666D01*
X140208095Y-92614761D01*
X140246190Y-92652857D01*
X140284285Y-92729047D01*
X140284285Y-92919523D01*
X140246190Y-92995714D01*
X140208095Y-93033809D01*
X140131904Y-93071904D01*
X139903333Y-93071904D01*
X139827142Y-93033809D01*
X139789047Y-92995714D01*
X140665238Y-93033809D02*
X140665238Y-93071904D01*
X140627142Y-93148095D01*
X140589047Y-93186190D01*
X140931904Y-92271904D02*
X141427142Y-92271904D01*
X141160476Y-92576666D01*
X141274761Y-92576666D01*
X141350952Y-92614761D01*
X141389047Y-92652857D01*
X141427142Y-92729047D01*
X141427142Y-92919523D01*
X141389047Y-92995714D01*
X141350952Y-93033809D01*
X141274761Y-93071904D01*
X141046190Y-93071904D01*
X140970000Y-93033809D01*
X140931904Y-92995714D01*
X141655714Y-92271904D02*
X141922380Y-93071904D01*
X142189047Y-92271904D01*
X139789047Y-89731904D02*
X140284285Y-89731904D01*
X140017619Y-90036666D01*
X140131904Y-90036666D01*
X140208095Y-90074761D01*
X140246190Y-90112857D01*
X140284285Y-90189047D01*
X140284285Y-90379523D01*
X140246190Y-90455714D01*
X140208095Y-90493809D01*
X140131904Y-90531904D01*
X139903333Y-90531904D01*
X139827142Y-90493809D01*
X139789047Y-90455714D01*
X140665238Y-90493809D02*
X140665238Y-90531904D01*
X140627142Y-90608095D01*
X140589047Y-90646190D01*
X140931904Y-89731904D02*
X141427142Y-89731904D01*
X141160476Y-90036666D01*
X141274761Y-90036666D01*
X141350952Y-90074761D01*
X141389047Y-90112857D01*
X141427142Y-90189047D01*
X141427142Y-90379523D01*
X141389047Y-90455714D01*
X141350952Y-90493809D01*
X141274761Y-90531904D01*
X141046190Y-90531904D01*
X140970000Y-90493809D01*
X140931904Y-90455714D01*
X141655714Y-89731904D02*
X141922380Y-90531904D01*
X142189047Y-89731904D01*
X139789047Y-87191904D02*
X140284285Y-87191904D01*
X140017619Y-87496666D01*
X140131904Y-87496666D01*
X140208095Y-87534761D01*
X140246190Y-87572857D01*
X140284285Y-87649047D01*
X140284285Y-87839523D01*
X140246190Y-87915714D01*
X140208095Y-87953809D01*
X140131904Y-87991904D01*
X139903333Y-87991904D01*
X139827142Y-87953809D01*
X139789047Y-87915714D01*
X140665238Y-87953809D02*
X140665238Y-87991904D01*
X140627142Y-88068095D01*
X140589047Y-88106190D01*
X140931904Y-87191904D02*
X141427142Y-87191904D01*
X141160476Y-87496666D01*
X141274761Y-87496666D01*
X141350952Y-87534761D01*
X141389047Y-87572857D01*
X141427142Y-87649047D01*
X141427142Y-87839523D01*
X141389047Y-87915714D01*
X141350952Y-87953809D01*
X141274761Y-87991904D01*
X141046190Y-87991904D01*
X140970000Y-87953809D01*
X140931904Y-87915714D01*
X141655714Y-87191904D02*
X141922380Y-87991904D01*
X142189047Y-87191904D01*
D10*
X140231904Y-85542380D02*
X140231904Y-84542380D01*
X140470000Y-84542380D01*
X140612857Y-84590000D01*
X140708095Y-84685238D01*
X140755714Y-84780476D01*
X140803333Y-84970952D01*
X140803333Y-85113809D01*
X140755714Y-85304285D01*
X140708095Y-85399523D01*
X140612857Y-85494761D01*
X140470000Y-85542380D01*
X140231904Y-85542380D01*
X141136666Y-84542380D02*
X141803333Y-84542380D01*
X141374761Y-85542380D01*
X140231904Y-83002380D02*
X140231904Y-82002380D01*
X140470000Y-82002380D01*
X140612857Y-82050000D01*
X140708095Y-82145238D01*
X140755714Y-82240476D01*
X140803333Y-82430952D01*
X140803333Y-82573809D01*
X140755714Y-82764285D01*
X140708095Y-82859523D01*
X140612857Y-82954761D01*
X140470000Y-83002380D01*
X140231904Y-83002380D01*
X141660476Y-82002380D02*
X141470000Y-82002380D01*
X141374761Y-82050000D01*
X141327142Y-82097619D01*
X141231904Y-82240476D01*
X141184285Y-82430952D01*
X141184285Y-82811904D01*
X141231904Y-82907142D01*
X141279523Y-82954761D01*
X141374761Y-83002380D01*
X141565238Y-83002380D01*
X141660476Y-82954761D01*
X141708095Y-82907142D01*
X141755714Y-82811904D01*
X141755714Y-82573809D01*
X141708095Y-82478571D01*
X141660476Y-82430952D01*
X141565238Y-82383333D01*
X141374761Y-82383333D01*
X141279523Y-82430952D01*
X141231904Y-82478571D01*
X141184285Y-82573809D01*
X140231904Y-80462380D02*
X140231904Y-79462380D01*
X140470000Y-79462380D01*
X140612857Y-79510000D01*
X140708095Y-79605238D01*
X140755714Y-79700476D01*
X140803333Y-79890952D01*
X140803333Y-80033809D01*
X140755714Y-80224285D01*
X140708095Y-80319523D01*
X140612857Y-80414761D01*
X140470000Y-80462380D01*
X140231904Y-80462380D01*
X141708095Y-79462380D02*
X141231904Y-79462380D01*
X141184285Y-79938571D01*
X141231904Y-79890952D01*
X141327142Y-79843333D01*
X141565238Y-79843333D01*
X141660476Y-79890952D01*
X141708095Y-79938571D01*
X141755714Y-80033809D01*
X141755714Y-80271904D01*
X141708095Y-80367142D01*
X141660476Y-80414761D01*
X141565238Y-80462380D01*
X141327142Y-80462380D01*
X141231904Y-80414761D01*
X141184285Y-80367142D01*
X140231904Y-77922380D02*
X140231904Y-76922380D01*
X140470000Y-76922380D01*
X140612857Y-76970000D01*
X140708095Y-77065238D01*
X140755714Y-77160476D01*
X140803333Y-77350952D01*
X140803333Y-77493809D01*
X140755714Y-77684285D01*
X140708095Y-77779523D01*
X140612857Y-77874761D01*
X140470000Y-77922380D01*
X140231904Y-77922380D01*
X141422380Y-76922380D02*
X141517619Y-76922380D01*
X141612857Y-76970000D01*
X141660476Y-77017619D01*
X141708095Y-77112857D01*
X141755714Y-77303333D01*
X141755714Y-77541428D01*
X141708095Y-77731904D01*
X141660476Y-77827142D01*
X141612857Y-77874761D01*
X141517619Y-77922380D01*
X141422380Y-77922380D01*
X141327142Y-77874761D01*
X141279523Y-77827142D01*
X141231904Y-77731904D01*
X141184285Y-77541428D01*
X141184285Y-77303333D01*
X141231904Y-77112857D01*
X141279523Y-77017619D01*
X141327142Y-76970000D01*
X141422380Y-76922380D01*
D12*
X139979523Y-75063333D02*
X140360476Y-75063333D01*
X139903333Y-75291904D02*
X140170000Y-74491904D01*
X140436666Y-75291904D01*
X140703333Y-75291904D02*
X140703333Y-74491904D01*
X140893809Y-74491904D01*
X141008095Y-74530000D01*
X141084285Y-74606190D01*
X141122380Y-74682380D01*
X141160476Y-74834761D01*
X141160476Y-74949047D01*
X141122380Y-75101428D01*
X141084285Y-75177619D01*
X141008095Y-75253809D01*
X140893809Y-75291904D01*
X140703333Y-75291904D01*
X141960476Y-75215714D02*
X141922380Y-75253809D01*
X141808095Y-75291904D01*
X141731904Y-75291904D01*
X141617619Y-75253809D01*
X141541428Y-75177619D01*
X141503333Y-75101428D01*
X141465238Y-74949047D01*
X141465238Y-74834761D01*
X141503333Y-74682380D01*
X141541428Y-74606190D01*
X141617619Y-74530000D01*
X141731904Y-74491904D01*
X141808095Y-74491904D01*
X141922380Y-74530000D01*
X141960476Y-74568095D01*
D10*
X158202380Y-106870476D02*
X158202380Y-107346666D01*
X158678571Y-107394285D01*
X158630952Y-107346666D01*
X158583333Y-107251428D01*
X158583333Y-107013333D01*
X158630952Y-106918095D01*
X158678571Y-106870476D01*
X158773809Y-106822857D01*
X159011904Y-106822857D01*
X159107142Y-106870476D01*
X159154761Y-106918095D01*
X159202380Y-107013333D01*
X159202380Y-107251428D01*
X159154761Y-107346666D01*
X159107142Y-107394285D01*
X158202380Y-106537142D02*
X159202380Y-106203809D01*
X158202380Y-105870476D01*
X153122380Y-107941904D02*
X153122380Y-107370476D01*
X154122380Y-107656190D02*
X153122380Y-107656190D01*
X153122380Y-107132380D02*
X154122380Y-106465714D01*
X153122380Y-106465714D02*
X154122380Y-107132380D01*
X154122380Y-106084761D02*
X153122380Y-106084761D01*
X153122380Y-105846666D01*
X153170000Y-105703809D01*
X153265238Y-105608571D01*
X153360476Y-105560952D01*
X153550952Y-105513333D01*
X153693809Y-105513333D01*
X153884285Y-105560952D01*
X153979523Y-105608571D01*
X154074761Y-105703809D01*
X154122380Y-105846666D01*
X154122380Y-106084761D01*
X151582380Y-107346666D02*
X151106190Y-107680000D01*
X151582380Y-107918095D02*
X150582380Y-107918095D01*
X150582380Y-107537142D01*
X150630000Y-107441904D01*
X150677619Y-107394285D01*
X150772857Y-107346666D01*
X150915714Y-107346666D01*
X151010952Y-107394285D01*
X151058571Y-107441904D01*
X151106190Y-107537142D01*
X151106190Y-107918095D01*
X150582380Y-107013333D02*
X151582380Y-106346666D01*
X150582380Y-106346666D02*
X151582380Y-107013333D01*
X151582380Y-105965714D02*
X150582380Y-105965714D01*
X150582380Y-105727619D01*
X150630000Y-105584761D01*
X150725238Y-105489523D01*
X150820476Y-105441904D01*
X151010952Y-105394285D01*
X151153809Y-105394285D01*
X151344285Y-105441904D01*
X151439523Y-105489523D01*
X151534761Y-105584761D01*
X151582380Y-105727619D01*
X151582380Y-105965714D01*
X141305595Y-110418571D02*
X141638928Y-110418571D01*
X141781785Y-110942380D02*
X141305595Y-110942380D01*
X141305595Y-109942380D01*
X141781785Y-109942380D01*
X142162738Y-110894761D02*
X142305595Y-110942380D01*
X142543690Y-110942380D01*
X142638928Y-110894761D01*
X142686547Y-110847142D01*
X142734166Y-110751904D01*
X142734166Y-110656666D01*
X142686547Y-110561428D01*
X142638928Y-110513809D01*
X142543690Y-110466190D01*
X142353214Y-110418571D01*
X142257976Y-110370952D01*
X142210357Y-110323333D01*
X142162738Y-110228095D01*
X142162738Y-110132857D01*
X142210357Y-110037619D01*
X142257976Y-109990000D01*
X142353214Y-109942380D01*
X142591309Y-109942380D01*
X142734166Y-109990000D01*
X143162738Y-110942380D02*
X143162738Y-109942380D01*
X143543690Y-109942380D01*
X143638928Y-109990000D01*
X143686547Y-110037619D01*
X143734166Y-110132857D01*
X143734166Y-110275714D01*
X143686547Y-110370952D01*
X143638928Y-110418571D01*
X143543690Y-110466190D01*
X143162738Y-110466190D01*
X144162738Y-110561428D02*
X144924642Y-110561428D01*
X145924642Y-110942380D02*
X145353214Y-110942380D01*
X145638928Y-110942380D02*
X145638928Y-109942380D01*
X145543690Y-110085238D01*
X145448452Y-110180476D01*
X145353214Y-110228095D01*
X146305595Y-110037619D02*
X146353214Y-109990000D01*
X146448452Y-109942380D01*
X146686547Y-109942380D01*
X146781785Y-109990000D01*
X146829404Y-110037619D01*
X146877023Y-110132857D01*
X146877023Y-110228095D01*
X146829404Y-110370952D01*
X146257976Y-110942380D01*
X146877023Y-110942380D01*
X147638928Y-110418571D02*
X147305595Y-110418571D01*
X147305595Y-110942380D02*
X147305595Y-109942380D01*
X147781785Y-109942380D01*
D11*
X170640000Y-99930000D02*
X169140000Y-99930000D01*
X166640000Y-101180000D02*
X166640000Y-105680000D01*
X169140000Y-106930000D02*
X170640000Y-106930000D01*
X173140000Y-105680000D02*
X173140000Y-101180000D01*
X136740000Y-101330000D02*
X136740000Y-105830000D01*
X140740000Y-100080000D02*
X139240000Y-100080000D01*
X143240000Y-105830000D02*
X143240000Y-101330000D01*
X139240000Y-107080000D02*
X140740000Y-107080000D01*
X171390000Y-96580000D02*
X174050000Y-96580000D01*
X171390000Y-73660000D02*
X171390000Y-96580000D01*
X174050000Y-73660000D02*
X174050000Y-96580000D01*
X171390000Y-73660000D02*
X174050000Y-73660000D01*
X171390000Y-72390000D02*
X171390000Y-71060000D01*
X171390000Y-71060000D02*
X172720000Y-71060000D01*
X138490000Y-73600000D02*
X135830000Y-73600000D01*
X138490000Y-91440000D02*
X138490000Y-73600000D01*
X135830000Y-91440000D02*
X135830000Y-73600000D01*
X138490000Y-91440000D02*
X135830000Y-91440000D01*
X138490000Y-92710000D02*
X138490000Y-94040000D01*
X138490000Y-94040000D02*
X137160000Y-94040000D01*
X146820000Y-64080000D02*
X163060000Y-64080000D01*
X163060000Y-64080000D02*
X163060000Y-71700000D01*
X163060000Y-87700000D02*
X163060000Y-88320000D01*
X163060000Y-88320000D02*
X160940000Y-88320000D01*
X148940000Y-88320000D02*
X146820000Y-88320000D01*
X146820000Y-88320000D02*
X146820000Y-87700000D01*
X146820000Y-71700000D02*
X146820000Y-64080000D01*
X146820000Y-71700000D02*
X146210000Y-71700000D01*
X145570000Y-106920000D02*
X149955000Y-106920000D01*
X149955000Y-106920000D02*
X149955000Y-103900000D01*
X149955000Y-103900000D02*
X145570000Y-103900000D01*
X159925000Y-106920000D02*
X164310000Y-106920000D01*
X159925000Y-103900000D02*
X159925000Y-106920000D01*
X164310000Y-103900000D02*
X159925000Y-103900000D01*
X161957936Y-102510000D02*
X163162064Y-102510000D01*
X161957936Y-100690000D02*
X163162064Y-100690000D01*
X147922064Y-102510000D02*
X146717936Y-102510000D01*
X147922064Y-100690000D02*
X146717936Y-100690000D01*
X164310000Y-92470000D02*
X159925000Y-92470000D01*
X159925000Y-92470000D02*
X159925000Y-95490000D01*
X159925000Y-95490000D02*
X164310000Y-95490000D01*
X146960000Y-92107936D02*
X146960000Y-93312064D01*
X145140000Y-92107936D02*
X145140000Y-93312064D01*
X143150000Y-96069564D02*
X143150000Y-94865436D01*
X141330000Y-96069564D02*
X141330000Y-94865436D01*
X146717936Y-96880000D02*
X147922064Y-96880000D01*
X146717936Y-98700000D02*
X147922064Y-98700000D01*
X161957936Y-98700000D02*
X163162064Y-98700000D01*
X161957936Y-96880000D02*
X163162064Y-96880000D01*
X158350000Y-95880000D02*
X157090000Y-95880000D01*
X151530000Y-95880000D02*
X152790000Y-95880000D01*
X158350000Y-99640000D02*
X158350000Y-95880000D01*
X151530000Y-101890000D02*
X151530000Y-95880000D01*
X149800000Y-109160000D02*
X149800000Y-111820000D01*
X157480000Y-109160000D02*
X149800000Y-109160000D01*
X157480000Y-111820000D02*
X149800000Y-111820000D01*
X157480000Y-109160000D02*
X157480000Y-111820000D01*
X158750000Y-109160000D02*
X160080000Y-109160000D01*
X160080000Y-109160000D02*
X160080000Y-110490000D01*
D10*
X173918571Y-104298571D02*
X173918571Y-104631904D01*
X174442380Y-104631904D02*
X173442380Y-104631904D01*
X173442380Y-104155714D01*
X174442380Y-103631904D02*
X174394761Y-103727142D01*
X174299523Y-103774761D01*
X173442380Y-103774761D01*
X174442380Y-102822380D02*
X173918571Y-102822380D01*
X173823333Y-102870000D01*
X173775714Y-102965238D01*
X173775714Y-103155714D01*
X173823333Y-103250952D01*
X174394761Y-102822380D02*
X174442380Y-102917619D01*
X174442380Y-103155714D01*
X174394761Y-103250952D01*
X174299523Y-103298571D01*
X174204285Y-103298571D01*
X174109047Y-103250952D01*
X174061428Y-103155714D01*
X174061428Y-102917619D01*
X174013809Y-102822380D01*
X174394761Y-102393809D02*
X174442380Y-102298571D01*
X174442380Y-102108095D01*
X174394761Y-102012857D01*
X174299523Y-101965238D01*
X174251904Y-101965238D01*
X174156666Y-102012857D01*
X174109047Y-102108095D01*
X174109047Y-102250952D01*
X174061428Y-102346190D01*
X173966190Y-102393809D01*
X173918571Y-102393809D01*
X173823333Y-102346190D01*
X173775714Y-102250952D01*
X173775714Y-102108095D01*
X173823333Y-102012857D01*
X174442380Y-101536666D02*
X173442380Y-101536666D01*
X174442380Y-101108095D02*
X173918571Y-101108095D01*
X173823333Y-101155714D01*
X173775714Y-101250952D01*
X173775714Y-101393809D01*
X173823333Y-101489047D01*
X173870952Y-101536666D01*
X135437619Y-102901904D02*
X135913809Y-102568571D01*
X135437619Y-102330476D02*
X136437619Y-102330476D01*
X136437619Y-102711428D01*
X136390000Y-102806666D01*
X136342380Y-102854285D01*
X136247142Y-102901904D01*
X136104285Y-102901904D01*
X136009047Y-102854285D01*
X135961428Y-102806666D01*
X135913809Y-102711428D01*
X135913809Y-102330476D01*
X135485238Y-103711428D02*
X135437619Y-103616190D01*
X135437619Y-103425714D01*
X135485238Y-103330476D01*
X135580476Y-103282857D01*
X135961428Y-103282857D01*
X136056666Y-103330476D01*
X136104285Y-103425714D01*
X136104285Y-103616190D01*
X136056666Y-103711428D01*
X135961428Y-103759047D01*
X135866190Y-103759047D01*
X135770952Y-103282857D01*
X135485238Y-104140000D02*
X135437619Y-104235238D01*
X135437619Y-104425714D01*
X135485238Y-104520952D01*
X135580476Y-104568571D01*
X135628095Y-104568571D01*
X135723333Y-104520952D01*
X135770952Y-104425714D01*
X135770952Y-104282857D01*
X135818571Y-104187619D01*
X135913809Y-104140000D01*
X135961428Y-104140000D01*
X136056666Y-104187619D01*
X136104285Y-104282857D01*
X136104285Y-104425714D01*
X136056666Y-104520952D01*
X135485238Y-105378095D02*
X135437619Y-105282857D01*
X135437619Y-105092380D01*
X135485238Y-104997142D01*
X135580476Y-104949523D01*
X135961428Y-104949523D01*
X136056666Y-104997142D01*
X136104285Y-105092380D01*
X136104285Y-105282857D01*
X136056666Y-105378095D01*
X135961428Y-105425714D01*
X135866190Y-105425714D01*
X135770952Y-104949523D01*
X136104285Y-105711428D02*
X136104285Y-106092380D01*
X136437619Y-105854285D02*
X135580476Y-105854285D01*
X135485238Y-105901904D01*
X135437619Y-105997142D01*
X135437619Y-106092380D01*
X172386666Y-69512380D02*
X172386666Y-70226666D01*
X172339047Y-70369523D01*
X172243809Y-70464761D01*
X172100952Y-70512380D01*
X172005714Y-70512380D01*
X172767619Y-69512380D02*
X173386666Y-69512380D01*
X173053333Y-69893333D01*
X173196190Y-69893333D01*
X173291428Y-69940952D01*
X173339047Y-69988571D01*
X173386666Y-70083809D01*
X173386666Y-70321904D01*
X173339047Y-70417142D01*
X173291428Y-70464761D01*
X173196190Y-70512380D01*
X172910476Y-70512380D01*
X172815238Y-70464761D01*
X172767619Y-70417142D01*
X136826666Y-71842380D02*
X136826666Y-72556666D01*
X136779047Y-72699523D01*
X136683809Y-72794761D01*
X136540952Y-72842380D01*
X136445714Y-72842380D01*
X137731428Y-72175714D02*
X137731428Y-72842380D01*
X137493333Y-71794761D02*
X137255238Y-72509047D01*
X137874285Y-72509047D01*
X143618095Y-70392380D02*
X143618095Y-71201904D01*
X143665714Y-71297142D01*
X143713333Y-71344761D01*
X143808571Y-71392380D01*
X143999047Y-71392380D01*
X144094285Y-71344761D01*
X144141904Y-71297142D01*
X144189523Y-71201904D01*
X144189523Y-70392380D01*
X145189523Y-71392380D02*
X144618095Y-71392380D01*
X144903809Y-71392380D02*
X144903809Y-70392380D01*
X144808571Y-70535238D01*
X144713333Y-70630476D01*
X144618095Y-70678095D01*
X147153333Y-108117142D02*
X147105714Y-108164761D01*
X146962857Y-108212380D01*
X146867619Y-108212380D01*
X146724761Y-108164761D01*
X146629523Y-108069523D01*
X146581904Y-107974285D01*
X146534285Y-107783809D01*
X146534285Y-107640952D01*
X146581904Y-107450476D01*
X146629523Y-107355238D01*
X146724761Y-107260000D01*
X146867619Y-107212380D01*
X146962857Y-107212380D01*
X147105714Y-107260000D01*
X147153333Y-107307619D01*
X148105714Y-108212380D02*
X147534285Y-108212380D01*
X147820000Y-108212380D02*
X147820000Y-107212380D01*
X147724761Y-107355238D01*
X147629523Y-107450476D01*
X147534285Y-107498095D01*
X162393333Y-103417142D02*
X162345714Y-103464761D01*
X162202857Y-103512380D01*
X162107619Y-103512380D01*
X161964761Y-103464761D01*
X161869523Y-103369523D01*
X161821904Y-103274285D01*
X161774285Y-103083809D01*
X161774285Y-102940952D01*
X161821904Y-102750476D01*
X161869523Y-102655238D01*
X161964761Y-102560000D01*
X162107619Y-102512380D01*
X162202857Y-102512380D01*
X162345714Y-102560000D01*
X162393333Y-102607619D01*
X162774285Y-102607619D02*
X162821904Y-102560000D01*
X162917142Y-102512380D01*
X163155238Y-102512380D01*
X163250476Y-102560000D01*
X163298095Y-102607619D01*
X163345714Y-102702857D01*
X163345714Y-102798095D01*
X163298095Y-102940952D01*
X162726666Y-103512380D01*
X163345714Y-103512380D01*
X162393333Y-100137142D02*
X162345714Y-100184761D01*
X162202857Y-100232380D01*
X162107619Y-100232380D01*
X161964761Y-100184761D01*
X161869523Y-100089523D01*
X161821904Y-99994285D01*
X161774285Y-99803809D01*
X161774285Y-99660952D01*
X161821904Y-99470476D01*
X161869523Y-99375238D01*
X161964761Y-99280000D01*
X162107619Y-99232380D01*
X162202857Y-99232380D01*
X162345714Y-99280000D01*
X162393333Y-99327619D01*
X162726666Y-99232380D02*
X163345714Y-99232380D01*
X163012380Y-99613333D01*
X163155238Y-99613333D01*
X163250476Y-99660952D01*
X163298095Y-99708571D01*
X163345714Y-99803809D01*
X163345714Y-100041904D01*
X163298095Y-100137142D01*
X163250476Y-100184761D01*
X163155238Y-100232380D01*
X162869523Y-100232380D01*
X162774285Y-100184761D01*
X162726666Y-100137142D01*
X147153333Y-103777142D02*
X147105714Y-103824761D01*
X146962857Y-103872380D01*
X146867619Y-103872380D01*
X146724761Y-103824761D01*
X146629523Y-103729523D01*
X146581904Y-103634285D01*
X146534285Y-103443809D01*
X146534285Y-103300952D01*
X146581904Y-103110476D01*
X146629523Y-103015238D01*
X146724761Y-102920000D01*
X146867619Y-102872380D01*
X146962857Y-102872380D01*
X147105714Y-102920000D01*
X147153333Y-102967619D01*
X148010476Y-103205714D02*
X148010476Y-103872380D01*
X147772380Y-102824761D02*
X147534285Y-103539047D01*
X148153333Y-103539047D01*
X162393333Y-91987142D02*
X162345714Y-92034761D01*
X162202857Y-92082380D01*
X162107619Y-92082380D01*
X161964761Y-92034761D01*
X161869523Y-91939523D01*
X161821904Y-91844285D01*
X161774285Y-91653809D01*
X161774285Y-91510952D01*
X161821904Y-91320476D01*
X161869523Y-91225238D01*
X161964761Y-91130000D01*
X162107619Y-91082380D01*
X162202857Y-91082380D01*
X162345714Y-91130000D01*
X162393333Y-91177619D01*
X163298095Y-91082380D02*
X162821904Y-91082380D01*
X162774285Y-91558571D01*
X162821904Y-91510952D01*
X162917142Y-91463333D01*
X163155238Y-91463333D01*
X163250476Y-91510952D01*
X163298095Y-91558571D01*
X163345714Y-91653809D01*
X163345714Y-91891904D01*
X163298095Y-91987142D01*
X163250476Y-92034761D01*
X163155238Y-92082380D01*
X162917142Y-92082380D01*
X162821904Y-92034761D01*
X162774285Y-91987142D01*
X148322380Y-92876666D02*
X147846190Y-93210000D01*
X148322380Y-93448095D02*
X147322380Y-93448095D01*
X147322380Y-93067142D01*
X147370000Y-92971904D01*
X147417619Y-92924285D01*
X147512857Y-92876666D01*
X147655714Y-92876666D01*
X147750952Y-92924285D01*
X147798571Y-92971904D01*
X147846190Y-93067142D01*
X147846190Y-93448095D01*
X148322380Y-91924285D02*
X148322380Y-92495714D01*
X148322380Y-92210000D02*
X147322380Y-92210000D01*
X147465238Y-92305238D01*
X147560476Y-92400476D01*
X147608095Y-92495714D01*
X140872380Y-95634166D02*
X140396190Y-95967500D01*
X140872380Y-96205595D02*
X139872380Y-96205595D01*
X139872380Y-95824642D01*
X139920000Y-95729404D01*
X139967619Y-95681785D01*
X140062857Y-95634166D01*
X140205714Y-95634166D01*
X140300952Y-95681785D01*
X140348571Y-95729404D01*
X140396190Y-95824642D01*
X140396190Y-96205595D01*
X139967619Y-95253214D02*
X139920000Y-95205595D01*
X139872380Y-95110357D01*
X139872380Y-94872261D01*
X139920000Y-94777023D01*
X139967619Y-94729404D01*
X140062857Y-94681785D01*
X140158095Y-94681785D01*
X140300952Y-94729404D01*
X140872380Y-95300833D01*
X140872380Y-94681785D01*
X147153333Y-96422380D02*
X146820000Y-95946190D01*
X146581904Y-96422380D02*
X146581904Y-95422380D01*
X146962857Y-95422380D01*
X147058095Y-95470000D01*
X147105714Y-95517619D01*
X147153333Y-95612857D01*
X147153333Y-95755714D01*
X147105714Y-95850952D01*
X147058095Y-95898571D01*
X146962857Y-95946190D01*
X146581904Y-95946190D01*
X147486666Y-95422380D02*
X148105714Y-95422380D01*
X147772380Y-95803333D01*
X147915238Y-95803333D01*
X148010476Y-95850952D01*
X148058095Y-95898571D01*
X148105714Y-95993809D01*
X148105714Y-96231904D01*
X148058095Y-96327142D01*
X148010476Y-96374761D01*
X147915238Y-96422380D01*
X147629523Y-96422380D01*
X147534285Y-96374761D01*
X147486666Y-96327142D01*
X162393333Y-96422380D02*
X162060000Y-95946190D01*
X161821904Y-96422380D02*
X161821904Y-95422380D01*
X162202857Y-95422380D01*
X162298095Y-95470000D01*
X162345714Y-95517619D01*
X162393333Y-95612857D01*
X162393333Y-95755714D01*
X162345714Y-95850952D01*
X162298095Y-95898571D01*
X162202857Y-95946190D01*
X161821904Y-95946190D01*
X163250476Y-95755714D02*
X163250476Y-96422380D01*
X163012380Y-95374761D02*
X162774285Y-96089047D01*
X163393333Y-96089047D01*
X154178095Y-92162380D02*
X154178095Y-92971904D01*
X154225714Y-93067142D01*
X154273333Y-93114761D01*
X154368571Y-93162380D01*
X154559047Y-93162380D01*
X154654285Y-93114761D01*
X154701904Y-93067142D01*
X154749523Y-92971904D01*
X154749523Y-92162380D01*
X155178095Y-92257619D02*
X155225714Y-92210000D01*
X155320952Y-92162380D01*
X155559047Y-92162380D01*
X155654285Y-92210000D01*
X155701904Y-92257619D01*
X155749523Y-92352857D01*
X155749523Y-92448095D01*
X155701904Y-92590952D01*
X155130476Y-93162380D01*
X155749523Y-93162380D01*
X160746666Y-109942380D02*
X160746666Y-110656666D01*
X160699047Y-110799523D01*
X160603809Y-110894761D01*
X160460952Y-110942380D01*
X160365714Y-110942380D01*
X161746666Y-110942380D02*
X161175238Y-110942380D01*
X161460952Y-110942380D02*
X161460952Y-109942380D01*
X161365714Y-110085238D01*
X161270476Y-110180476D01*
X161175238Y-110228095D01*
M02*
